<?xml version="1.0" standalone="no"?>
<!DOCTYPE svg PUBLIC "-//W3C//DTD SVG 20010904//EN"
 "http://www.w3.org/TR/2001/REC-SVG-20010904/DTD/svg10.dtd">
<svg version="1.0" xmlns="http://www.w3.org/2000/svg"
 width="440.000000pt" height="292.000000pt" viewBox="0 0 440.000000 292.000000"
 preserveAspectRatio="xMidYMid meet">

<g transform="translate(0.000000,292.000000) scale(0.100000,-0.100000)"
fill="#000000" stroke="none">
<path d="M2121 2241 c-7 -12 -18 -17 -29 -14 -14 3 -29 -9 -56 -46 -21 -28
-43 -51 -50 -51 -14 0 -52 -38 -45 -44 2 -3 23 -2 47 1 34 5 43 10 48 29 3 13
14 24 23 24 9 0 28 22 43 50 16 28 34 50 40 50 7 0 34 -13 61 -28 l47 -28 -31
-43 c-17 -24 -29 -45 -26 -47 7 -8 57 15 57 26 0 6 11 15 25 20 16 6 25 17 25
32 0 41 14 51 36 27 10 -12 46 -42 78 -67 l60 -46 -33 47 c-25 37 -37 46 -52
42 -10 -4 -19 -3 -19 2 0 4 -11 21 -24 37 l-23 30 -35 -21 -35 -21 -32 25
c-17 14 -37 23 -44 20 -6 -2 -20 0 -29 4 -13 7 -20 4 -27 -10z"/>
<path d="M1680 1830 l0 -140 310 0 c171 0 310 -2 310 -5 0 -3 -144 -174 -320
-381 l-320 -375 0 -130 0 -129 545 0 545 0 0 140 0 140 -326 2 -326 3 320 375
321 375 1 133 0 132 -530 0 -530 0 0 -140z"/>
</g>
</svg>
